<svg width="32" height="28" viewBox="0 0 32 28" fill="none" xmlns="http://www.w3.org/2000/svg">
<g filter="url(#filter0_d_587_781)">
<path d="M13.479 1.84246C11.7854 1.03386 9.41824 0.637769 6.24903 0.623707C5.95014 0.619646 5.65711 0.706801 5.40903 0.873551C5.2054 1.01119 5.03871 1.19676 4.92362 1.41393C4.80854 1.63111 4.74858 1.87324 4.74903 2.11902V15.53C4.74903 16.4365 5.39403 17.1204 6.24903 17.1204C9.58043 17.1204 12.9222 17.4317 14.9237 19.3236C14.9511 19.3495 14.9855 19.3669 15.0227 19.3735C15.0599 19.3801 15.0982 19.3757 15.1328 19.3607C15.1675 19.3457 15.197 19.3209 15.2176 19.2893C15.2383 19.2577 15.2492 19.2207 15.249 19.1829V3.38089C15.2491 3.27428 15.2263 3.1689 15.1821 3.07187C15.138 2.97483 15.0735 2.88839 14.9931 2.81839C14.5346 2.42644 14.0253 2.09817 13.479 1.84246ZM26.589 0.872144C26.3408 0.70581 26.0478 0.619141 25.749 0.623707C22.5798 0.637769 20.2126 1.03199 18.519 1.84246C17.9728 2.0977 17.4633 2.42533 17.0045 2.81652C16.9242 2.88662 16.8599 2.97309 16.8159 3.07011C16.7718 3.16713 16.749 3.27246 16.749 3.37902V19.182C16.749 19.2183 16.7597 19.2538 16.7798 19.284C16.7998 19.3142 16.8284 19.3378 16.8618 19.3519C16.8953 19.366 16.9321 19.3699 16.9678 19.3631C17.0034 19.3563 17.0362 19.3391 17.0622 19.3137C18.2654 18.1184 20.3772 17.119 25.7509 17.1195C26.1487 17.1195 26.5303 16.9615 26.8116 16.6801C27.0929 16.3988 27.2509 16.0173 27.2509 15.6195V2.11949C27.2514 1.87322 27.1914 1.6306 27.0759 1.41306C26.9605 1.19552 26.7933 1.00975 26.589 0.872144Z" fill="#3995FF"/>
</g>
<defs>
<filter id="filter0_d_587_781" x="0.749023" y="0.623535" width="30.5018" height="26.7529" filterUnits="userSpaceOnUse" color-interpolation-filters="sRGB">
<feFlood flood-opacity="0" result="BackgroundImageFix"/>
<feColorMatrix in="SourceAlpha" type="matrix" values="0 0 0 0 0 0 0 0 0 0 0 0 0 0 0 0 0 0 127 0" result="hardAlpha"/>
<feOffset dy="4"/>
<feGaussianBlur stdDeviation="2"/>
<feComposite in2="hardAlpha" operator="out"/>
<feColorMatrix type="matrix" values="0 0 0 0 0 0 0 0 0 0 0 0 0 0 0 0 0 0 0.25 0"/>
<feBlend mode="normal" in2="BackgroundImageFix" result="effect1_dropShadow_587_781"/>
<feBlend mode="normal" in="SourceGraphic" in2="effect1_dropShadow_587_781" result="shape"/>
</filter>
</defs>
</svg>
