<svg width="20" height="21" viewBox="0 0 20 21" fill="none" xmlns="http://www.w3.org/2000/svg">
<path fill-rule="evenodd" clip-rule="evenodd" d="M16.6902 3.88395C16.7047 3.80429 16.6996 3.72231 16.6754 3.64506C16.6512 3.5678 16.6086 3.49758 16.5512 3.44043C16.4939 3.38328 16.4235 3.34091 16.3462 3.31696C16.2688 3.29302 16.1868 3.28821 16.1072 3.30295L13.6862 3.75295C13.5864 3.77181 13.4946 3.82064 13.4232 3.89295L7.33024 10.0069C7.23677 10.101 7.18447 10.2283 7.18485 10.3609C7.18522 10.4934 7.23824 10.6205 7.33224 10.7139L9.31224 12.6859C9.4061 12.7792 9.53311 12.8315 9.66545 12.8313C9.79779 12.8312 9.92465 12.7785 10.0182 12.6849L16.1112 6.56895C16.1828 6.49728 16.2309 6.40557 16.2492 6.30595L16.6902 3.88395ZM15.9242 2.31995C16.1631 2.27553 16.4092 2.28982 16.6414 2.36158C16.8736 2.43334 17.0848 2.56042 17.257 2.73189C17.4291 2.90337 17.5571 3.1141 17.6297 3.34596C17.7024 3.57783 17.7177 3.82388 17.6742 4.06295L17.2332 6.48695C17.1788 6.78605 17.0348 7.06155 16.8202 7.27695L10.7272 13.3919C10.5882 13.5316 10.423 13.6425 10.2411 13.7183C10.0592 13.7941 9.86413 13.8333 9.66707 13.8336C9.47001 13.834 9.2748 13.7955 9.09261 13.7204C8.91041 13.6453 8.7448 13.5351 8.60524 13.3959L6.62524 11.4229C6.34394 11.1421 6.18562 10.7611 6.18506 10.3636C6.1845 9.96607 6.34174 9.5846 6.62224 9.30295L12.7152 3.18595C12.9297 2.97067 13.2045 2.8256 13.5032 2.76995L15.9242 2.31995Z" fill="#924BD0"/>
<path fill-rule="evenodd" clip-rule="evenodd" d="M7.95402 12.0699C7.86015 11.9763 7.80732 11.8492 7.80713 11.7166C7.80694 11.584 7.85942 11.4568 7.95302 11.3629L11.336 7.96588C11.3824 7.91933 11.4375 7.88236 11.4981 7.85709C11.5587 7.83182 11.6238 7.81874 11.6895 7.8186C11.7552 7.81847 11.8202 7.83127 11.881 7.85628C11.9417 7.88129 11.997 7.91803 12.0435 7.96438C12.0901 8.01074 12.127 8.06581 12.1523 8.12646C12.1776 8.1871 12.1907 8.25212 12.1908 8.31782C12.1909 8.38352 12.1781 8.4486 12.1531 8.50935C12.1281 8.5701 12.0914 8.62533 12.045 8.67188L8.66002 12.0699C8.56626 12.1636 8.43911 12.2163 8.30652 12.2163C8.17394 12.2163 8.04779 12.1636 7.95402 12.0699Z" fill="#924BD0"/>
<path fill-rule="evenodd" clip-rule="evenodd" d="M3.54198 9.67588C3.90503 9.31218 4.39756 9.10739 4.91145 9.10645C5.42534 9.10551 5.9186 9.3085 6.28298 9.67088L10.359 13.7309C10.7233 14.0937 10.9285 14.5864 10.9295 15.1005C10.9305 15.6146 10.7273 16.1081 10.3645 16.4724C10.0017 16.8367 9.509 17.0419 8.99487 17.0429C8.48074 17.0439 7.98726 16.8407 7.62298 16.4779L3.54698 12.4179C3.18298 12.0548 2.97799 11.562 2.97705 11.0479C2.97612 10.5338 3.1793 10.0403 3.54198 9.67588ZM5.57798 10.3789C5.40161 10.2032 5.16267 10.1047 4.91371 10.1052C4.66476 10.1057 4.42619 10.205 4.25048 10.3814C4.07478 10.5577 3.97633 10.7967 3.9768 11.0456C3.97727 11.2946 4.07661 11.5332 4.25298 11.7089L8.32898 15.7689C8.41603 15.8568 8.51961 15.9266 8.63376 15.9743C8.7479 16.022 8.87035 16.0466 8.99406 16.0468C9.11777 16.047 9.2403 16.0227 9.35458 15.9754C9.46887 15.928 9.57265 15.8585 9.65996 15.7708C9.74727 15.6832 9.81639 15.5792 9.86332 15.4647C9.91025 15.3502 9.93408 15.2276 9.93343 15.1039C9.93279 14.9802 9.90767 14.8578 9.85954 14.7439C9.81141 14.6299 9.74121 14.5266 9.65298 14.4399L5.57798 10.3789Z" fill="#924BD0"/>
<path fill-rule="evenodd" clip-rule="evenodd" d="M5.30704 13.4599L2.63004 16.1479C2.53656 16.242 2.48427 16.3693 2.48464 16.5019C2.48502 16.6344 2.53803 16.7615 2.63204 16.8549L3.25204 17.474C3.29861 17.5204 3.35389 17.5572 3.41471 17.5822C3.47553 17.6072 3.54068 17.62 3.60645 17.6198C3.67222 17.6197 3.7373 17.6065 3.79798 17.5811C3.85865 17.5557 3.91372 17.5186 3.96004 17.4719L6.63804 14.7839L7.34604 15.4899L4.66804 18.1779C4.38727 18.4597 4.00611 18.6184 3.60836 18.6191C3.21062 18.6199 2.82886 18.4626 2.54704 18.1819L1.92604 17.5629C1.6446 17.2822 1.4861 16.9013 1.48535 16.5038C1.4846 16.1063 1.64166 15.7247 1.92204 15.4429L4.60004 12.7539L5.30704 13.4599ZM3.31004 3.88395C3.29557 3.80429 3.30066 3.72231 3.32487 3.64506C3.34908 3.5678 3.39169 3.49758 3.44904 3.44043C3.50639 3.38328 3.57675 3.34091 3.65409 3.31696C3.73143 3.29302 3.81343 3.28821 3.89304 3.30295L6.31404 3.75295C6.41389 3.77181 6.50563 3.82064 6.57704 3.89295L9.86703 7.19395L10.575 6.48795L7.28504 3.18595C7.07057 2.97067 6.79578 2.8256 6.49704 2.76995L4.07604 2.31995C3.83714 2.27553 3.59103 2.28982 3.35888 2.36158C3.12673 2.43334 2.91548 2.56042 2.74332 2.73189C2.57115 2.90337 2.44323 3.1141 2.37054 3.34596C2.29785 3.57783 2.28258 3.82388 2.32604 4.06295L2.76704 6.48695C2.82146 6.78605 2.96549 7.06155 3.18004 7.27695L6.47004 10.5779L7.17804 9.87195L3.88804 6.56995C3.81682 6.49815 3.76906 6.40645 3.75104 6.30695L3.31004 3.88395ZM10.35 14.3569L14.416 10.3699C14.5941 10.194 14.8348 10.096 15.0852 10.0975C15.3356 10.099 15.5751 10.1999 15.751 10.3779C15.927 10.556 16.025 10.7967 16.0235 11.0471C16.022 11.2975 15.9211 11.537 15.743 11.7129L11.671 15.7689C11.4946 15.9442 11.2558 16.0425 11.0071 16.0421C10.7584 16.0417 10.52 15.9428 10.344 15.7669L9.63603 16.4729C10.391 17.2309 11.619 17.2329 12.376 16.4779L16.449 12.4209C16.8157 12.0584 17.0233 11.565 17.0262 11.0494C17.0291 10.5338 16.8271 10.0381 16.4645 9.67145C16.102 9.30479 15.6086 9.09717 15.093 9.09426C14.5774 9.09135 14.0817 9.2934 13.715 9.65595L9.65003 13.6429L10.35 14.3569Z" fill="#924BD0"/>
<path fill-rule="evenodd" clip-rule="evenodd" d="M14.6933 13.4599L17.3713 16.1479C17.4647 16.2419 17.517 16.3692 17.5167 16.5018C17.5163 16.6344 17.4633 16.7614 17.3693 16.8549L16.7493 17.4739C16.7027 17.5203 16.6474 17.5571 16.5866 17.5822C16.5258 17.6072 16.4606 17.62 16.3949 17.6198C16.3291 17.6196 16.264 17.6065 16.2033 17.5811C16.1427 17.5557 16.0876 17.5186 16.0413 17.4719L13.3633 14.7839L12.6553 15.4899L15.3333 18.1779C15.614 18.4596 15.9952 18.6183 16.3929 18.6191C16.7907 18.6198 17.1725 18.4626 17.4543 18.1819L18.0753 17.5629C18.3567 17.2822 18.5152 16.9012 18.516 16.5037C18.5167 16.1062 18.3596 15.7247 18.0793 15.4429L15.4013 12.7539L14.6933 13.4599Z" fill="#924BD0"/>
</svg>
