<svg width="19" height="19" viewBox="0 0 19 19" fill="none" xmlns="http://www.w3.org/2000/svg">
<path d="M9.49986 5.31029C8.68401 5.31029 7.88649 5.55221 7.20813 6.00547C6.52978 6.45873 6.00107 7.10297 5.68886 7.85672C5.37665 8.61046 5.29496 9.43986 5.45412 10.24C5.61329 11.0402 6.00615 11.7752 6.58305 12.3521C7.15994 12.929 7.89494 13.3219 8.69511 13.481C9.49529 13.6402 10.3247 13.5585 11.0784 13.2463C11.8322 12.9341 12.4764 12.4054 12.9297 11.727C13.3829 11.0487 13.6249 10.2511 13.6249 9.43529C13.6236 8.34165 13.1886 7.29316 12.4153 6.51984C11.642 5.74652 10.5935 5.31153 9.49986 5.31029ZM9.49986 12.8103C8.83235 12.8103 8.17983 12.6123 7.62481 12.2415C7.0698 11.8706 6.63721 11.3435 6.38177 10.7268C6.12632 10.1101 6.05949 9.43154 6.18971 8.77686C6.31994 8.12217 6.64137 7.5208 7.11338 7.0488C7.58538 6.5768 8.18675 6.25536 8.84143 6.12514C9.49612 5.99491 10.1747 6.06175 10.7914 6.31719C11.4081 6.57264 11.9352 7.00522 12.3061 7.56024C12.6769 8.11525 12.8749 8.76777 12.8749 9.43529C12.8749 10.3304 12.5193 11.1888 11.8863 11.8218C11.2534 12.4547 10.395 12.8103 9.49986 12.8103ZM17.3683 9.76435C17.3764 9.54497 17.3764 9.32622 17.3683 9.1081L18.8524 7.25279C18.8892 7.20699 18.9147 7.15318 18.927 7.0957C18.9392 7.03821 18.9377 6.97866 18.9227 6.92185C18.7006 6.09142 18.3693 5.29414 17.9374 4.55091C17.9084 4.49982 17.8679 4.45624 17.8191 4.42368C17.7702 4.39111 17.7144 4.37047 17.6561 4.36341L15.2945 4.10091C15.146 3.9402 14.9912 3.78539 14.8305 3.63685L14.5689 1.27904C14.5619 1.22075 14.5412 1.16494 14.5087 1.11609C14.4761 1.06724 14.4325 1.02672 14.3814 0.997786C13.6391 0.566899 12.8432 0.235914 12.0142 0.013411C11.9575 -0.00174832 11.898 -0.00336814 11.8405 0.00868188C11.783 0.0207319 11.7292 0.0461148 11.6833 0.082786L9.82892 1.56685C9.60955 1.5581 9.3908 1.5581 9.17267 1.56685L7.31549 0.082786C7.26969 0.0459544 7.21588 0.0204013 7.1584 0.00818782C7.10091 -0.00402567 7.04136 -0.0025577 6.98455 0.0124735C6.15476 0.234699 5.35813 0.566027 4.61549 0.997786C4.5644 1.02672 4.52082 1.06724 4.48825 1.11609C4.45568 1.16494 4.43504 1.22075 4.42799 1.27904L4.16549 3.6406C4.00477 3.78914 3.84997 3.94395 3.70142 4.10466L1.34361 4.36622C1.28533 4.37328 1.22951 4.39392 1.18066 4.42649C1.13181 4.45905 1.09129 4.50264 1.06236 4.55372C0.631475 5.29602 0.300489 6.09196 0.0779862 6.92091C0.0628269 6.97765 0.0612071 7.03716 0.0732571 7.09464C0.0853071 7.15212 0.11069 7.20597 0.147361 7.25185L1.63142 9.10622C1.62267 9.3256 1.62267 9.54435 1.63142 9.76247L0.147361 11.6197C0.11053 11.6655 0.0849765 11.7193 0.072763 11.7768C0.0605495 11.8342 0.0620175 11.8938 0.0770487 11.9506C0.299274 12.7804 0.630602 13.577 1.06236 14.3197C1.09129 14.3707 1.13181 14.4143 1.18066 14.4469C1.22951 14.4795 1.28533 14.5001 1.34361 14.5072L3.70517 14.7697C3.8533 14.93 4.00892 15.0856 4.16924 15.2337L4.43174 17.5962C4.43879 17.6545 4.45943 17.7103 4.492 17.7592C4.52457 17.808 4.56815 17.8485 4.61924 17.8775C5.36261 18.3073 6.1595 18.637 6.98924 18.8581C7.04598 18.8733 7.10549 18.8749 7.16297 18.8628C7.22045 18.8508 7.2743 18.8254 7.32017 18.7887L9.17455 17.3047C9.39392 17.3128 9.61267 17.3128 9.8308 17.3047L11.6861 18.7887C11.7526 18.8421 11.8353 18.8712 11.9205 18.8712C11.9521 18.8711 11.9836 18.867 12.0142 18.859C12.8444 18.6366 13.6414 18.3049 14.3842 17.8728C14.4353 17.8439 14.4789 17.8033 14.5115 17.7545C14.544 17.7056 14.5647 17.6498 14.5717 17.5915L14.8342 15.23C14.9945 15.0818 15.1502 14.9262 15.2983 14.7659L17.6608 14.5034C17.7191 14.4964 17.7749 14.4757 17.8237 14.4431C17.8726 14.4106 17.9131 14.367 17.942 14.3159C18.3719 13.5725 18.7016 12.7756 18.9227 11.9459C18.9378 11.8892 18.9395 11.8297 18.9274 11.7722C18.9154 11.7147 18.89 11.6608 18.8533 11.615L17.3683 9.76435ZM17.3842 13.7797L15.0714 14.0365C14.9792 14.0468 14.894 14.0909 14.8324 14.1603C14.6423 14.3748 14.4394 14.5777 14.2249 14.7678C14.1554 14.8294 14.1114 14.9146 14.1011 15.0068L13.8442 17.3187C13.2608 17.6412 12.6433 17.8974 12.003 18.0828L10.1861 16.6287C10.1195 16.5757 10.0369 16.547 9.95174 16.5472H9.92924C9.64326 16.5649 9.35646 16.5649 9.07049 16.5472C8.97771 16.5416 8.88617 16.5706 8.81361 16.6287L6.99767 18.0818C6.3571 17.8973 5.73919 17.6417 5.15549 17.3197L4.89861 15.0068C4.88837 14.9146 4.84428 14.8294 4.77486 14.7678C4.56033 14.5777 4.35746 14.3748 4.16736 14.1603C4.10574 14.0909 4.02056 14.0468 3.9283 14.0365L1.61642 13.7797C1.29399 13.1963 1.03771 12.5787 0.852361 11.9384L2.30642 10.1215C2.3645 10.049 2.39357 9.95743 2.38799 9.86466C2.37116 9.57866 2.37116 9.29191 2.38799 9.00591C2.39357 8.91314 2.3645 8.8216 2.30642 8.74904L0.853299 6.9331C1.03784 6.29252 1.29349 5.67462 1.61549 5.09091L3.9283 4.83404C4.02056 4.82379 4.10574 4.7797 4.16736 4.71029C4.35746 4.49575 4.56033 4.29288 4.77486 4.10279C4.84428 4.04116 4.88837 3.95598 4.89861 3.86372L5.15549 1.55185C5.73888 1.22941 6.35646 0.973138 6.99674 0.787786L8.81361 2.24185C8.88617 2.29993 8.97771 2.329 9.07049 2.32341C9.35646 2.30568 9.64326 2.30568 9.92924 2.32341C10.022 2.329 10.1136 2.29993 10.1861 2.24185L12.002 0.788723C12.6426 0.973264 13.2605 1.22892 13.8442 1.55091L14.1011 3.86372C14.1114 3.95598 14.1554 4.04116 14.2249 4.10279C14.4394 4.29288 14.6423 4.49575 14.8324 4.71029C14.894 4.7797 14.9792 4.82379 15.0714 4.83404L17.3833 5.09091C17.7057 5.67431 17.962 6.29188 18.1474 6.93216L16.6933 8.74904C16.6352 8.8216 16.6062 8.91314 16.6117 9.00591C16.6286 9.29191 16.6286 9.57866 16.6117 9.86466C16.6062 9.95743 16.6352 10.049 16.6933 10.1215L18.1464 11.9375C17.9619 12.578 17.7062 13.196 17.3842 13.7797Z" fill="#0040DD"/>
</svg>
