<svg width="29" height="29" viewBox="0 0 29 29" fill="none" xmlns="http://www.w3.org/2000/svg">
<g filter="url(#filter0_d_587_245)">
<path d="M22.7486 10.6366C22.7523 10.5016 22.7523 10.3666 22.7486 10.2316L24.1473 8.48413C24.2207 8.39237 24.2714 8.28468 24.2955 8.16971C24.3196 8.05475 24.3164 7.93573 24.2861 7.82225C24.0564 6.96045 23.7134 6.13293 23.2661 5.36131C23.2075 5.26036 23.1261 5.17449 23.0284 5.11052C22.9308 5.04656 22.8195 5.00628 22.7036 4.99288L20.4798 4.74538C20.3873 4.64788 20.2936 4.55413 20.1986 4.46413L19.9361 2.23475C19.9226 2.1187 19.8822 2.00741 19.818 1.90975C19.7539 1.81209 19.6678 1.73076 19.5667 1.67225C18.7951 1.22531 17.9676 0.882931 17.1058 0.654125C16.9923 0.623806 16.8733 0.620566 16.7583 0.644666C16.6433 0.668767 16.5356 0.719533 16.4439 0.792875L14.7011 2.18412H14.2961L12.5486 0.788187C12.4568 0.714845 12.3491 0.664079 12.2342 0.639979C12.1192 0.615879 12.0002 0.619119 11.8867 0.649437C11.0249 0.87915 10.1974 1.22214 9.42577 1.66944C9.32481 1.72806 9.23894 1.80943 9.17498 1.90708C9.11101 2.00474 9.07073 2.11597 9.05733 2.23194L8.80983 4.45944C8.71233 4.55256 8.61858 4.64631 8.52858 4.74069L6.2992 4.99663C6.18315 5.01013 6.07186 5.05055 5.9742 5.11468C5.87654 5.17881 5.79521 5.26487 5.7367 5.366C5.28983 6.13771 4.94716 6.96522 4.71764 7.82694C4.68745 7.94049 4.68436 8.05955 4.70863 8.17452C4.73289 8.28948 4.78383 8.39714 4.85733 8.48881L6.24858 10.2316V10.6366L4.85264 12.3841C4.7793 12.4759 4.72853 12.5836 4.70443 12.6985C4.68033 12.8135 4.68357 12.9325 4.71389 13.046C4.9436 13.9078 5.28659 14.7353 5.73389 15.5069C5.79251 15.6079 5.87388 15.6938 5.97154 15.7577C6.06919 15.8217 6.18043 15.862 6.29639 15.8754L8.52014 16.1229C8.61327 16.2204 8.70702 16.3141 8.80139 16.4041L9.06108 18.6335C9.07458 18.7496 9.11501 18.8608 9.17914 18.9585C9.24327 19.0562 9.32933 19.1375 9.43045 19.196C10.2022 19.6429 11.0297 19.9855 11.8914 20.2151C12.0049 20.2453 12.124 20.2483 12.239 20.2241C12.3539 20.1998 12.4616 20.1489 12.5533 20.0754L14.2961 18.6841C14.4311 18.6879 14.5661 18.6879 14.7011 18.6841L16.4486 20.0829C16.5403 20.1562 16.648 20.207 16.763 20.2311C16.878 20.2552 16.997 20.2519 17.1105 20.2216C17.9724 19.9923 18.8 19.6493 19.5714 19.2016C19.6723 19.143 19.7582 19.0616 19.8222 18.964C19.8861 18.8663 19.9264 18.7551 19.9398 18.6391L20.1873 16.4154C20.2848 16.3229 20.3786 16.2291 20.4686 16.1341L22.698 15.8716C22.814 15.8581 22.9253 15.8177 23.023 15.7536C23.1206 15.6894 23.2019 15.6034 23.2605 15.5023C23.7073 14.7305 24.05 13.903 24.2795 13.0413C24.3097 12.9278 24.3128 12.8087 24.2885 12.6937C24.2643 12.5788 24.2133 12.4711 24.1398 12.3794L22.7486 10.6366ZM14.4986 14.1841C13.7569 14.1841 13.0319 13.9642 12.4152 13.5521C11.7985 13.1401 11.3179 12.5544 11.034 11.8692C10.7502 11.184 10.6759 10.43 10.8206 9.70254C10.9653 8.97511 11.3225 8.30692 11.8469 7.78247C12.3714 7.25803 13.0396 6.90088 13.767 6.75618C14.4944 6.61149 15.2484 6.68575 15.9336 6.96958C16.6189 7.25341 17.2045 7.73405 17.6166 8.35074C18.0286 8.96742 18.2486 9.69245 18.2486 10.4341C18.2486 11.4287 17.8535 12.3825 17.1502 13.0858C16.447 13.789 15.4931 14.1841 14.4986 14.1841Z" fill="#3995FF"/>
</g>
<defs>
<filter id="filter0_d_587_245" x="0.688477" y="0.624023" width="27.623" height="27.623" filterUnits="userSpaceOnUse" color-interpolation-filters="sRGB">
<feFlood flood-opacity="0" result="BackgroundImageFix"/>
<feColorMatrix in="SourceAlpha" type="matrix" values="0 0 0 0 0 0 0 0 0 0 0 0 0 0 0 0 0 0 127 0" result="hardAlpha"/>
<feOffset dy="4"/>
<feGaussianBlur stdDeviation="2"/>
<feComposite in2="hardAlpha" operator="out"/>
<feColorMatrix type="matrix" values="0 0 0 0 0 0 0 0 0 0 0 0 0 0 0 0 0 0 0.25 0"/>
<feBlend mode="normal" in2="BackgroundImageFix" result="effect1_dropShadow_587_245"/>
<feBlend mode="normal" in="SourceGraphic" in2="effect1_dropShadow_587_245" result="shape"/>
</filter>
</defs>
</svg>
