<svg width="23" height="24" viewBox="0 0 23 24" fill="none" xmlns="http://www.w3.org/2000/svg">
<g filter="url(#filter0_d_587_4)">
<path d="M4.5 14.3849V5.69288C4.5 5.43688 4.55733 5.19455 4.672 4.96588C4.78667 4.73721 4.94467 4.54888 5.146 4.40088L10.531 0.322878C10.813 0.107545 11.135 -0.00012207 11.497 -0.00012207C11.859 -0.00012207 12.183 0.107545 12.469 0.322878L17.854 4.39988C18.056 4.54788 18.214 4.73655 18.328 4.96588C18.4427 5.19455 18.5 5.43688 18.5 5.69288V14.3849C18.5 14.6529 18.4003 14.8865 18.201 15.0859C18.0017 15.2852 17.768 15.3849 17.5 15.3849H14.116C13.8867 15.3849 13.6947 15.3075 13.54 15.1529C13.3853 14.9975 13.308 14.8055 13.308 14.5769V9.80788C13.308 9.57921 13.2307 9.38754 13.076 9.23288C12.9207 9.07754 12.7287 8.99988 12.5 8.99988H10.5C10.2713 8.99988 10.0797 9.07754 9.925 9.23288C9.76967 9.38754 9.692 9.57921 9.692 9.80788V14.5779C9.692 14.8065 9.61467 14.9982 9.46 15.1529C9.30533 15.3075 9.11367 15.3849 8.885 15.3849H5.5C5.232 15.3849 4.99833 15.2852 4.799 15.0859C4.59967 14.8865 4.5 14.6529 4.5 14.3849Z" fill="#3995FF"/>
</g>
<defs>
<filter id="filter0_d_587_4" x="0.5" y="-0.00012207" width="22" height="23.385" filterUnits="userSpaceOnUse" color-interpolation-filters="sRGB">
<feFlood flood-opacity="0" result="BackgroundImageFix"/>
<feColorMatrix in="SourceAlpha" type="matrix" values="0 0 0 0 0 0 0 0 0 0 0 0 0 0 0 0 0 0 127 0" result="hardAlpha"/>
<feOffset dy="4"/>
<feGaussianBlur stdDeviation="2"/>
<feComposite in2="hardAlpha" operator="out"/>
<feColorMatrix type="matrix" values="0 0 0 0 0 0 0 0 0 0 0 0 0 0 0 0 0 0 0.3 0"/>
<feBlend mode="normal" in2="BackgroundImageFix" result="effect1_dropShadow_587_4"/>
<feBlend mode="normal" in="SourceGraphic" in2="effect1_dropShadow_587_4" result="shape"/>
</filter>
</defs>
</svg>
