<svg width="14" height="16" viewBox="0 0 14 16" fill="none" xmlns="http://www.w3.org/2000/svg">
<path d="M1 14.3849H4.692V9.30788C4.692 9.07921 4.76967 8.88754 4.925 8.73288C5.07967 8.57754 5.27133 8.49988 5.5 8.49988H8.5C8.72867 8.49988 8.92067 8.57754 9.076 8.73288C9.23067 8.88754 9.308 9.07921 9.308 9.30788V14.3849H13V5.69288C13 5.59021 12.9777 5.49688 12.933 5.41288C12.8883 5.32888 12.8273 5.25554 12.75 5.19288L7.366 1.13488C7.26333 1.04554 7.14133 1.00088 7 1.00088C6.85867 1.00088 6.737 1.04554 6.635 1.13488L1.25 5.19288C1.17333 5.25688 1.11233 5.33021 1.067 5.41288C1.02167 5.49554 0.999333 5.58888 1 5.69288V14.3849ZM0 14.3849V5.69288C0 5.43688 0.0573333 5.19455 0.172 4.96588C0.286667 4.73721 0.444667 4.54888 0.646 4.40088L6.031 0.322878C6.313 0.107545 6.635 -0.00012207 6.997 -0.00012207C7.359 -0.00012207 7.683 0.107545 7.969 0.322878L13.354 4.39988C13.556 4.54788 13.714 4.73655 13.828 4.96588C13.9427 5.19455 14 5.43688 14 5.69288V14.3849C14 14.6529 13.9003 14.8865 13.701 15.0859C13.5017 15.2852 13.268 15.3849 13 15.3849H9.116C8.88667 15.3849 8.69467 15.3075 8.54 15.1529C8.38533 14.9975 8.308 14.8055 8.308 14.5769V9.50088H5.692V14.5769C5.692 14.8062 5.61467 14.9982 5.46 15.1529C5.30533 15.3075 5.11367 15.3849 4.885 15.3849H1C0.732 15.3849 0.498333 15.2852 0.299 15.0859C0.0996664 14.8865 0 14.6529 0 14.3849Z" fill="#0040DD"/>
</svg>
