<svg width="28" height="29" viewBox="0 0 28 29" fill="none" xmlns="http://www.w3.org/2000/svg">
<path d="M24.936 17.4702L27.8038 22.4358C27.9221 22.6402 27.9891 22.8703 27.9988 23.1063C28.0085 23.3422 27.9607 23.577 27.8595 23.7904C27.7584 24.0038 27.6068 24.1895 27.418 24.3314C27.2291 24.4734 27.0086 24.5673 26.7754 24.6052L26.6105 24.6212L26.4472 24.6198L22.1688 24.3428L20.2681 28.1858C20.1652 28.3942 20.0139 28.5749 19.8269 28.713C19.6399 28.851 19.4226 28.9424 19.1931 28.9795C18.9635 29.0166 18.7285 28.9983 18.5075 28.9262C18.2865 28.8541 18.0859 28.7302 17.9225 28.5649L17.8029 28.4279L17.6979 28.2675L14.8272 23.3004C16.8478 23.1735 18.8118 22.5811 20.5654 21.5697C22.3191 20.5583 23.8149 19.1553 24.936 17.4702ZM13.1701 23.3004L10.3023 28.2689C10.1863 28.4705 10.0238 28.6414 9.82823 28.7674C9.63271 28.8934 9.40987 28.9708 9.17832 28.9932C8.94676 29.0156 8.71321 28.9823 8.49714 28.8962C8.28107 28.81 8.08876 28.6734 7.93625 28.4978L7.82539 28.352L7.73203 28.1858L5.82989 24.3442L1.55443 24.6212C1.31883 24.6367 1.08298 24.5948 0.86715 24.4991C0.65132 24.4034 0.461961 24.2568 0.315336 24.0718C0.168712 23.8868 0.0692057 23.6691 0.025365 23.4372C-0.0184758 23.2053 -0.00534072 22.9662 0.0636421 22.7405L0.12199 22.5845L0.194925 22.4387L3.06565 17.4687C4.18595 19.1538 5.68094 20.5571 7.4338 21.569C9.18665 22.5809 11.1499 23.1725 13.1701 23.3004ZM14.0015 0L14.3516 0.00583158C16.9976 0.0965545 19.5048 1.21089 21.3445 3.11377C23.1842 5.01665 24.2125 7.55931 24.2124 10.2054L24.2081 10.4868L24.1979 10.7667L24.1716 11.1239L24.1337 11.4767L24.0987 11.7362C24.0026 12.3655 23.8477 12.9844 23.6363 13.5848L23.467 14.0339L23.2439 14.5412C22.4181 16.2995 21.1074 17.7857 19.466 18.8254C17.8245 19.8651 15.9202 20.4151 13.9769 20.4108C12.0335 20.4065 10.1317 19.8481 8.49482 18.8012C6.85793 17.7543 5.5539 16.2623 4.73586 14.5004L4.54623 14.0674L4.47038 13.8735L4.35368 13.5571L4.21511 13.1285C4.16564 12.9625 4.1204 12.7953 4.07945 12.627L3.99192 12.2319L3.92045 11.8368L3.89127 11.6341L3.83439 11.1632L3.79938 10.6311L3.79062 10.2054C3.79058 7.55931 4.81885 5.01665 6.65854 3.11377C8.49823 1.21089 11.0055 0.0965545 13.6514 0.00583158L14.0015 0Z" fill="#F8BD00"/>
</svg>
