<svg width="23" height="16" viewBox="0 0 23 16" fill="none" xmlns="http://www.w3.org/2000/svg">
<path d="M10.3947 5.36812C10.3635 5.27389 10.371 5.17113 10.4154 5.08239C10.4599 4.99364 10.5377 4.92614 10.6319 4.89469L11.7569 4.51969C11.8132 4.501 11.8731 4.49594 11.9318 4.50492C11.9904 4.5139 12.0461 4.53667 12.0942 4.57135C12.1424 4.60603 12.1816 4.65164 12.2087 4.70443C12.2357 4.75721 12.2499 4.81567 12.25 4.875V8.625C12.25 8.72446 12.2105 8.81984 12.1402 8.89017C12.0698 8.96049 11.9745 9 11.875 9C11.7755 9 11.6802 8.96049 11.6098 8.89017C11.5395 8.81984 11.5 8.72446 11.5 8.625V5.39531L10.8681 5.60531C10.7739 5.63648 10.6711 5.62902 10.5824 5.58456C10.4936 5.5401 10.4261 5.46227 10.3947 5.36812ZM22.375 15.375C22.375 15.4745 22.3355 15.5698 22.2652 15.6402C22.1948 15.7105 22.0995 15.75 22 15.75H1C0.900544 15.75 0.805161 15.7105 0.734835 15.6402C0.664509 15.5698 0.625 15.4745 0.625 15.375C0.625 15.2755 0.664509 15.1802 0.734835 15.1098C0.805161 15.0395 0.900544 15 1 15H2.125V5.625C2.125 5.32663 2.24353 5.04048 2.4545 4.8295C2.66548 4.61853 2.95163 4.5 3.25 4.5H7.375V1.125C7.375 0.826631 7.49353 0.540483 7.7045 0.329505C7.91548 0.118526 8.20163 0 8.5 0H14.5C14.7984 0 15.0845 0.118526 15.2955 0.329505C15.5065 0.540483 15.625 0.826631 15.625 1.125V8.25H19.75C20.0484 8.25 20.3345 8.36853 20.5455 8.57951C20.7565 8.79048 20.875 9.07663 20.875 9.375V15H22C22.0995 15 22.1948 15.0395 22.2652 15.1098C22.3355 15.1802 22.375 15.2755 22.375 15.375ZM15.625 9V15H20.125V9.375C20.125 9.27554 20.0855 9.18016 20.0152 9.10983C19.9448 9.03951 19.8495 9 19.75 9H15.625ZM8.125 15H14.875V1.125C14.875 1.02554 14.8355 0.930161 14.7652 0.859835C14.6948 0.789509 14.5995 0.75 14.5 0.75H8.5C8.40054 0.75 8.30516 0.789509 8.23483 0.859835C8.16451 0.930161 8.125 1.02554 8.125 1.125V15ZM2.875 15H7.375V5.25H3.25C3.15054 5.25 3.05516 5.28951 2.98484 5.35983C2.91451 5.43016 2.875 5.52554 2.875 5.625V15Z" fill="#0040DD"/>
</svg>
