<svg width="31" height="26" viewBox="0 0 31 26" fill="none" xmlns="http://www.w3.org/2000/svg">
<g filter="url(#filter0_d_587_103)">
<path d="M26 15.625H25.25V10.375C25.25 9.97718 25.092 9.59564 24.8107 9.31434C24.5294 9.03304 24.1478 8.875 23.75 8.875H20V2.125C20 1.72718 19.842 1.34564 19.5607 1.06434C19.2794 0.783035 18.8978 0.625 18.5 0.625H12.5C12.1022 0.625 11.7206 0.783035 11.4393 1.06434C11.158 1.34564 11 1.72718 11 2.125V5.125H7.25C6.85218 5.125 6.47064 5.28304 6.18934 5.56434C5.90804 5.84564 5.75 6.22718 5.75 6.625V15.625H5C4.80109 15.625 4.61032 15.704 4.46967 15.8447C4.32902 15.9853 4.25 16.1761 4.25 16.375C4.25 16.5739 4.32902 16.7647 4.46967 16.9053C4.61032 17.046 4.80109 17.125 5 17.125H26C26.1989 17.125 26.3897 17.046 26.5303 16.9053C26.671 16.7647 26.75 16.5739 26.75 16.375C26.75 16.1761 26.671 15.9853 26.5303 15.8447C26.3897 15.704 26.1989 15.625 26 15.625ZM11 15.625H7.25V6.625H11V15.625ZM16.625 9.625C16.625 9.82391 16.546 10.0147 16.4053 10.1553C16.2647 10.296 16.0739 10.375 15.875 10.375C15.6761 10.375 15.4853 10.296 15.3447 10.1553C15.204 10.0147 15.125 9.82391 15.125 9.625V6.91562L14.9872 6.96156C14.8937 6.99271 14.7951 7.00515 14.6968 6.99817C14.5986 6.99118 14.5027 6.96492 14.4146 6.92087C14.3265 6.87682 14.2479 6.81585 14.1834 6.74144C14.1188 6.66702 14.0696 6.58063 14.0384 6.48719C14.0073 6.39374 13.9949 6.29508 14.0018 6.19683C14.0088 6.09858 14.0351 6.00267 14.0791 5.91457C14.1232 5.82647 14.1842 5.74791 14.2586 5.68337C14.333 5.61883 14.4194 5.56959 14.5128 5.53844L15.6378 5.16344C15.7506 5.12585 15.8706 5.1156 15.9881 5.13352C16.1056 5.15145 16.2171 5.19703 16.3135 5.26652C16.41 5.33602 16.4885 5.42743 16.5426 5.53322C16.5968 5.63901 16.625 5.75616 16.625 5.875V9.625ZM23.75 15.625H20V10.375H23.75V15.625Z" fill="#3995FF"/>
</g>
<defs>
<filter id="filter0_d_587_103" x="0.25" y="0.625" width="30.5" height="24.5" filterUnits="userSpaceOnUse" color-interpolation-filters="sRGB">
<feFlood flood-opacity="0" result="BackgroundImageFix"/>
<feColorMatrix in="SourceAlpha" type="matrix" values="0 0 0 0 0 0 0 0 0 0 0 0 0 0 0 0 0 0 127 0" result="hardAlpha"/>
<feOffset dy="4"/>
<feGaussianBlur stdDeviation="2"/>
<feComposite in2="hardAlpha" operator="out"/>
<feColorMatrix type="matrix" values="0 0 0 0 0 0 0 0 0 0 0 0 0 0 0 0 0 0 0.3 0"/>
<feBlend mode="normal" in2="BackgroundImageFix" result="effect1_dropShadow_587_103"/>
<feBlend mode="normal" in="SourceGraphic" in2="effect1_dropShadow_587_103" result="shape"/>
</filter>
</defs>
</svg>
