<svg width="45" height="45" viewBox="0 0 45 45" fill="none" xmlns="http://www.w3.org/2000/svg">
<g clip-path="url(#clip0_691_1678)">
<path d="M44.4011 2.50242C44.5011 2.25255 44.5256 1.97881 44.4715 1.71515C44.4174 1.45149 44.2872 1.2095 44.0968 1.01918C43.9065 0.828866 43.6645 0.698589 43.4009 0.644503C43.1372 0.590418 42.8635 0.614902 42.6136 0.714922L2.60936 16.7172H2.60661L1.36361 17.2122C1.12818 17.3061 0.923294 17.4632 0.771577 17.6663C0.61986 17.8693 0.527218 18.1104 0.503886 18.3627C0.480553 18.6151 0.527438 18.8691 0.63936 19.0965C0.751283 19.3239 0.923888 19.5159 1.13811 19.6514L2.26561 20.3664L2.26836 20.3719L16.0046 29.1114L20.3771 35.9809C22.5001 39.1159 22.5001 36.3659 22.5001 34.9909C22.4998 33.2435 22.8695 31.5159 23.585 29.9217C24.3004 28.3275 25.3454 26.9029 26.6511 25.7416C27.9568 24.5804 29.4936 23.7088 31.1604 23.1843C32.8272 22.6598 34.5862 22.4942 36.3216 22.6984L44.4011 2.50242ZM39.3604 7.69992L18.7519 28.3084L18.1606 27.3789C18.0523 27.2084 17.9077 27.0638 17.7371 26.9554L16.8076 26.3642L37.4161 5.75567L40.6556 4.46042L39.3604 7.69992Z" fill="black"/>
<path d="M44.5 34.991C44.5 37.5437 43.4859 39.9918 41.6809 41.7969C39.8759 43.6019 37.4277 44.616 34.875 44.616C32.3223 44.616 29.8741 43.6019 28.0691 41.7969C26.2641 39.9918 25.25 37.5437 25.25 34.991C25.25 32.4383 26.2641 29.9901 28.0691 28.1851C29.8741 26.38 32.3223 25.366 34.875 25.366C37.4277 25.366 39.8759 26.38 41.6809 28.1851C43.4859 29.9901 44.5 32.4383 44.5 34.991ZM39.0192 30.3737C38.8643 30.2809 38.6926 30.2195 38.514 30.193C38.3353 30.1665 38.1532 30.1755 37.978 30.2194C37.8028 30.2633 37.638 30.3413 37.493 30.449C37.3479 30.5566 37.2255 30.6918 37.1328 30.8467L33.9152 36.2092L32.411 34.705C32.1528 34.4468 31.8026 34.3017 31.4375 34.3017C31.0724 34.3017 30.7222 34.4468 30.464 34.705C30.2058 34.9632 30.0608 35.3133 30.0608 35.6785C30.0608 36.0436 30.2058 36.3938 30.464 36.652L32.5925 38.7777C32.814 38.9997 33.0833 39.1682 33.3798 39.2705C33.6762 39.3728 33.9921 39.4061 34.3034 39.3679C34.6147 39.3297 34.9132 39.221 35.1762 39.0501C35.4391 38.8793 35.6597 38.6507 35.821 38.3817L39.4922 32.2602C39.5851 32.1053 39.6465 31.9336 39.673 31.7549C39.6995 31.5763 39.6905 31.3942 39.6466 31.219C39.6026 31.0438 39.5246 30.879 39.417 30.7339C39.3094 30.5889 39.1742 30.4665 39.0192 30.3737Z" fill="#05A660"/>
</g>
<defs>
<clipPath id="clip0_691_1678">
<rect width="44" height="44" fill="white" transform="translate(0.5 0.615967)"/>
</clipPath>
</defs>
</svg>
