<svg width="29" height="29" viewBox="0 0 29 29" fill="none" xmlns="http://www.w3.org/2000/svg">
<path d="M10.5143 5.27123C12.2881 2.09041 13.1742 0.5 14.5 0.5C15.8258 0.5 16.7119 2.09041 18.4857 5.27123L18.9449 6.09444C19.4489 6.99884 19.7009 7.45104 20.0929 7.74925C20.4849 8.04745 20.9748 8.15805 21.9548 8.37925L22.8452 8.58085C26.2891 9.36066 28.0097 9.74986 28.4199 11.0673C28.8287 12.3833 27.6555 13.7567 25.3077 16.5021L24.7002 17.2119C24.0338 17.9917 23.6992 18.3823 23.5494 18.8639C23.3996 19.3469 23.45 19.8677 23.5508 20.9079L23.6432 21.8557C23.9974 25.5196 24.1752 27.3508 23.1028 28.1642C22.0304 28.9776 20.4177 28.2356 17.1949 26.7516L16.3592 26.368C15.4436 25.9452 14.9858 25.7352 14.5 25.7352C14.0142 25.7352 13.5564 25.9452 12.6408 26.368L11.8065 26.7516C8.58234 28.2356 6.96958 28.9776 5.8986 28.1656C4.82483 27.3508 5.00262 25.5196 5.35681 21.8557L5.44921 20.9093C5.55001 19.8677 5.60041 19.3469 5.44921 18.8653C5.30082 18.3823 4.96622 17.9917 4.29984 17.2133L3.69225 16.5021C1.34451 13.7581 0.171337 12.3847 0.580127 11.0673C0.988917 9.74986 2.71228 9.35926 6.1562 8.58085L7.04658 8.37925C8.02515 8.15805 8.51374 8.04745 8.90713 7.74925C9.30052 7.45104 9.55112 6.99884 10.0551 6.09444L10.5143 5.27123Z" fill="#F8BD00"/>
</svg>
