<svg width="20" height="20" viewBox="0 0 20 20" fill="none" xmlns="http://www.w3.org/2000/svg">
<path d="M15.0002 15.8333C15.0002 16.4964 14.7368 17.1323 14.2679 17.6011C13.7991 18.0699 13.1632 18.3333 12.5002 18.3333H6.66683C6.00379 18.3333 5.3679 18.0699 4.89906 17.6011C4.43022 17.1323 4.16683 16.4964 4.16683 15.8333V5.83333H3.3335V3.33333H7.0835L7.91683 2.5H11.2502L12.0835 3.33333H15.8335V5.83333H15.0002V15.8333ZM5.00016 5.83333V15.8333C5.00016 16.2754 5.17576 16.6993 5.48832 17.0118C5.80088 17.3244 6.2248 17.5 6.66683 17.5H12.5002C12.9422 17.5 13.3661 17.3244 13.6787 17.0118C13.9912 16.6993 14.1668 16.2754 14.1668 15.8333V5.83333H5.00016ZM15.0002 5V4.16667H11.6668L10.8335 3.33333H8.3335L7.50016 4.16667H4.16683V5H15.0002ZM6.66683 7.5H7.50016V15.8333H6.66683V7.5ZM11.6668 7.5H12.5002V15.8333H11.6668V7.5Z" fill="#D51B1B"/>
</svg>
